<svg width="18" height="18" viewBox="0 0 18 18" fill="none" xmlns="http://www.w3.org/2000/svg">
<path fill-rule="evenodd" clip-rule="evenodd" d="M5.41478 4.5C4.76678 4.5 4.15928 4.7505 3.70478 5.20575C2.76128 6.15075 2.76128 7.689 3.70553 8.6355L8.99978 13.9388L14.2948 8.6355C15.239 7.689 15.239 6.15075 14.2948 5.20575C13.3858 4.2945 11.7838 4.296 10.8748 5.20575L9.53078 6.552C9.24879 6.83475 8.75078 6.83475 8.46878 6.552L7.12478 5.205C6.67028 4.7505 6.06353 4.5 5.41478 4.5ZM8.99979 15.75C8.80104 15.75 8.60979 15.6712 8.46954 15.5295L2.64354 9.6945C1.11654 8.1645 1.11654 5.67525 2.64354 4.14525C3.38154 3.40725 4.36554 3 5.41479 3C6.46404 3 7.44879 3.40725 8.18604 4.14525L8.99979 4.9605L9.81354 4.146C10.5515 3.40725 11.5355 3 12.5855 3C13.634 3 14.6188 3.40725 15.356 4.14525C16.8838 5.67525 16.8838 8.1645 15.3568 9.6945L9.53079 15.5303C9.38979 15.6713 9.19929 15.75 8.99979 15.75Z" fill="#8D8D94"/>
</svg>
