<svg width="16" height="16" viewBox="0 0 16 16" fill="none" xmlns="http://www.w3.org/2000/svg">
<path fill-rule="evenodd" clip-rule="evenodd" d="M4 6.4C4 5.9584 4.3584 5.6 4.8 5.6C5.2416 5.6 5.6 5.9584 5.6 6.4C5.6 6.8416 5.2416 7.2 4.8 7.2C4.3584 7.2 4 6.8416 4 6.4ZM8 5.6C7.5584 5.6 7.2 5.9584 7.2 6.4C7.2 6.8416 7.5584 7.2 8 7.2C8.4416 7.2 8.8 6.8416 8.8 6.4C8.8 5.9584 8.4416 5.6 8 5.6ZM11.2 5.6C10.7584 5.6 10.4 5.9584 10.4 6.4C10.4 6.8416 10.7584 7.2 11.2 7.2C11.6416 7.2 12 6.8416 12 6.4C12 5.9584 11.6416 5.6 11.2 5.6ZM14.4 10.4C14.4 10.8408 14.0408 11.2 13.6 11.2H5.2432C4.8088 11.2 4.3816 11.3184 4.008 11.5424L1.6 12.9872V2.4C1.6 1.9592 1.9592 1.6 2.4 1.6H13.6C14.0408 1.6 14.4 1.9592 14.4 2.4V10.4ZM13.6 0H2.4C1.0768 0 0 1.0768 0 2.4V14.4C0 14.688 0.1552 14.9544 0.4056 15.096C0.528 15.1656 0.664 15.2 0.8 15.2C0.9424 15.2 1.0848 15.1624 1.212 15.0856L4.8312 12.9144C4.956 12.8392 5.0984 12.8 5.2432 12.8H13.6C14.9232 12.8 16 11.7232 16 10.4V2.4C16 1.0768 14.9232 0 13.6 0Z" fill="#8D8D94"/>
</svg>
